<?xml version="1.0" encoding="UTF-8" standalone="no"?>
<!-- Generator: Adobe Illustrator 16.0.0, SVG Export Plug-In . SVG Version: 6.00 Build 0)  -->

<svg
   xmlns:dc="http://purl.org/dc/elements/1.1/"
   xmlns:cc="http://creativecommons.org/ns#"
   xmlns:rdf="http://www.w3.org/1999/02/22-rdf-syntax-ns#"
   xmlns:svg="http://www.w3.org/2000/svg"
   xmlns="http://www.w3.org/2000/svg"
   xmlns:sodipodi="http://sodipodi.sourceforge.net/DTD/sodipodi-0.dtd"
   xmlns:inkscape="http://www.inkscape.org/namespaces/inkscape"
   version="1.1"
   id="Capa_1"
   x="0px"
   y="0px"
   width="200"
   height="200"
   viewBox="0 0 200 200"
   xml:space="preserve"
   sodipodi:docname="fblogo.svg"
   inkscape:version="0.92.1 r15371"><metadata
     id="metadata41"><rdf:RDF><cc:Work
         rdf:about=""><dc:format>image/svg+xml</dc:format><dc:type
           rdf:resource="http://purl.org/dc/dcmitype/StillImage" /><dc:title></dc:title></cc:Work></rdf:RDF></metadata><defs
     id="defs39" /><sodipodi:namedview
     pagecolor="#ffffff"
     bordercolor="#666666"
     borderopacity="1"
     objecttolerance="10"
     gridtolerance="10"
     guidetolerance="10"
     inkscape:pageopacity="0"
     inkscape:pageshadow="2"
     inkscape:window-width="1920"
     inkscape:window-height="1017"
     id="namedview37"
     showgrid="false"
     inkscape:zoom="1.0907007"
     inkscape:cx="100.23026"
     inkscape:cy="75.294606"
     inkscape:window-x="-8"
     inkscape:window-y="-8"
     inkscape:window-maximized="1"
     inkscape:current-layer="g4" /><g
     id="g4"
     transform="matrix(0.33050847,0,0,0.33050847,0,-412)"><path
       style="fill:#ffeb1e;fill-opacity:1;stroke:#000000;stroke-width:2.73153138;stroke-miterlimit:4;stroke-dasharray:none;stroke-opacity:1"
       d="M 99.279297 3.3964844 C 46.669431 3.3964844 4.0195313 46.048328 4.0195312 98.658203 C 4.0195312 151.26775 46.669431 193.91797 99.279297 193.91797 C 119.17936 193.91797 137.65072 187.81063 152.93164 177.375 L 178.7832 185.33008 L 168.69336 163.88867 C 184.71817 146.84299 194.53906 123.89907 194.53906 98.658203 C 194.53906 46.048328 151.88885 3.3964844 99.279297 3.3964844 z M 105.5918 43.822266 L 124.95703 43.822266 L 124.95703 62.007812 L 111.32617 62.007812 C 104.49327 62.007812 102.94141 66.546483 102.94141 71.300781 L 102.94141 80.427734 L 123.95117 80.427734 L 121.08594 98.658203 L 102.94336 98.658203 L 102.94336 153.64062 L 84.869141 153.64062 L 84.869141 98.658203 L 73.697266 98.658203 L 73.697266 80.427734 L 84.869141 80.427734 L 84.869141 69.404297 C 84.869141 54.534985 89.310993 43.822266 105.5918 43.822266 z "
       transform="matrix(3.0256411,0,0,3.0256411,0,1246.5641)"
       id="path2" /></g><g
     id="g6"
     transform="translate(0,-412)" /><g
     id="g8"
     transform="translate(0,-412)" /><g
     id="g10"
     transform="translate(0,-412)" /><g
     id="g12"
     transform="translate(0,-412)" /><g
     id="g14"
     transform="translate(0,-412)" /><g
     id="g16"
     transform="translate(0,-412)" /><g
     id="g18"
     transform="translate(0,-412)" /><g
     id="g20"
     transform="translate(0,-412)" /><g
     id="g22"
     transform="translate(0,-412)" /><g
     id="g24"
     transform="translate(0,-412)" /><g
     id="g26"
     transform="translate(0,-412)" /><g
     id="g28"
     transform="translate(0,-412)" /><g
     id="g30"
     transform="translate(0,-412)" /><g
     id="g32"
     transform="translate(0,-412)" /><g
     id="g34"
     transform="translate(0,-412)" /></svg>